
<svg version="1.1" xmlns="http://www.w3.org/2000/svg" xmlns:xlink="http://www.w3.org/1999/xlink" x="0px" y="0px" viewBox="0 0 1000 1000" enable-background="new 0 0 1000 1000" xml:space="preserve">
<metadata> Svg Vector Icons : http://www.onlinewebfonts.com/icon </metadata>
<g><g transform="translate(0.000000,511.000000) scale(0.100000,-0.100000)"><path d="M4662.8,4974.9c-820.8-130.6-1251.9-413.7-1545.9-1012.4c-98-200.3-150.2-370.1-176.4-570.5c-8.7-63.1-19.6-115.4-24-115.4c-6.5,0-41.4,26.1-80.6,58.8c-117.6,100.1-272.2,158.9-415.9,158.9c-226.4-2.2-394.1-115.4-492.1-337.5c-63.1-143.7-80.6-448.5-34.8-631.4c84.9-354.9,304.8-1101.7,352.7-1197.5c54.4-113.2,156.8-237.3,248.2-298.3l50.1-34.8l-45.7-124.1c-78.4-211.2-54.4-230.8,148.1-117.6c111,63.2,117.6,63.2,76.2,17.4c-61-69.7-95.8-137.2-95.8-191.6c0-63.1,47.9-56.6,111,10.9c87.1,93.6,280.9,176.4,280.9,121.9c0-10.9-24-78.4-54.4-152.4c-56.6-137.2-69.7-222.1-34.8-222.1c10.9,0,76.2,34.8,145.9,76.2c106.7,65.3,204.7,98,204.7,69.7c0-4.4-15.2-39.2-34.8-76.2c-37-76.2-34.8-202.5,4.4-215.6c15.2-4.4,71.8,30.5,128.5,80.6c121.9,106.7,163.3,91.4,163.3-56.6c0-74-13.1-108.9-58.8-158.9c-82.7-87.1-594.4-548.7-768.6-692.4c-76.2-63.2-148.1-130.6-156.8-148.1c-23.9-41.4,52.3-95.8,450.7-328.8c587.9-341.8,825.2-511.7,992.9-714.1c100.2-124.1,102.3-148.1-8.7,280.9c-56.6,224.2-78.4,278.7-161.1,385.4c-187.2,243.8-233,442-143.7,616.2c58.8,115.4,224.3,317.9,246,304.8c8.7-4.4,21.8-41.4,30.5-78.4c34.8-178.5,331-550.8,487.7-614c43.5-17.4,121.9-39.2,174.2-47.9l91.5-15.2v-278.7c0-311.3,17.4-376.7,113.2-415.9c128.5-52.2,474.7,37,474.7,124.1c0,19.6-19.6,108.9-41.4,200.3c-23.9,93.6-45.7,215.6-50.1,274.3l-6.5,106.7l102.3,28.3c254.7,65.3,511.7,270,596.6,474.6c21.8,54.4,50.1,98,61,93.6c10.9-4.4,61-63.2,108.9-130.6c78.4-111.1,89.3-141.5,95.8-272.2c6.5-121.9-2.2-174.2-47.9-289.6c-47.9-124.1-121.9-489.9-121.9-616.2c0-28.3,65.3,28.3,206.8,178.5c222.1,233,344,330.9,833.9,668.4c200.3,139.3,309.2,226.4,304.8,248.2c-8.7,39.2-139.3,132.8-640.1,457.2C6422,39,6341.5,102.1,6345.8,132.6c19.6,113.2,52.3,204.7,74,204.7c13,0,56.6-28.3,98-65.3c39.2-37,87.1-65.3,104.5-65.3c43.5,0,98,87.1,98,156.8c0,34.8,6.5,61,13.1,61c6.5,0,63.1-43.5,121.9-98c60.9-54.4,121.9-95.8,135-91.5c13.1,4.4,28.3,84.9,34.8,182.9c6.5,98,19.6,185.1,28.3,196c10.9,8.7,43.5-10.9,71.8-47.9c152.4-182.9,178.5-206.8,230.8-206.8c93.6,0,113.2,47.9,74,167.7c-28.3,89.3-102.3,381-152.4,600.9l-15.2,61l65.3-34.8c128.4-65.3,248.2-30.5,370.1,111c121.9,137.2,172,285.2,309.2,901.4c124.1,555.2,132.8,614,121.9,794.7c-13.1,233-61,374.5-172,500.8c-211.2,241.7-537.8,239.5-820.8-2.2c-50.1-43.5-93.6-76.2-95.8-71.8s-32.7,121.9-67.5,259.1c-115.4,468.1-230.8,698.9-448.5,901.4c-158.9,145.9-302.6,228.6-548.7,315.7C5564.2,5007.6,5104.8,5046.8,4662.8,4974.9z M4562.6,3990.8c298.3-104.5,437.6-315.7,479-714.2c8.7-106.7,21.8-143.7,47.9-148.1c21.8-4.4,111.1,69.7,219.9,178.5c278.7,280.9,455,344,731.6,263.5c213.4-65.3,424.6-317.9,513.9-620.5c82.7-278.7,154.6-1308.6,102.3-1493.6c-34.8-126.3-141.5-280.9-317.9-455c-167.7-165.5-374.5-296.1-389.7-246c-4.4,15.2-30.5,98-54.4,185.1c-117.6,398.4-389.7,751.2-668.4,868.7c-132.8,54.4-302.7,74-439.8,50.1c-422.4-78.4-827.4-502.9-931.9-981.9c-19.6-87.1-39.2-161.1-41.4-165.5c-8.7-10.9-187.2,100.2-311.3,196c-152.4,117.6-252.6,261.3-309.2,448.5c-84.9,272.2-43.5,1073.4,78.4,1572c104.5,424.6,250.4,666.2,531.3,881.8C4094.5,4032.1,4301.3,4082.2,4562.6,3990.8z M7952.7,2895.6c37-24,52.3-54.4,52.3-104.5c0-115.4-256.9-1212.8-307-1308.6c-106.7-209-235.2-278.7-350.6-187.2c-69.7,54.4-78.4,106.7-104.5,672.8l-19.6,444.2l87.1,126.3c106.7,156.8,272.2,326.6,370.1,374.5C7763.3,2956.6,7872.1,2950,7952.7,2895.6z M2313.5,2765c115.4-47.9,228.6-143.7,368-315.7l124.1-152.4l-15.2-113.2c-39.2-313.5-104.5-655.4-154.6-801.2c-63.1-198.1-82.7-228.6-121.9-211.2c-52.3,19.6-165.5,206.8-211.2,348.4c-106.7,333.1-293.9,1036.4-293.9,1112.6c-2.2,74,6.5,87.1,74,124.1C2174.1,2806.3,2213.3,2808.5,2313.5,2765z M5200.6,1680.7c381-172,646.6-722.9,683.7-1419.6c41.4-718.5-209-1069.1-803.4-1123.5c-494.3-45.7-675,28.3-890.5,361.4C4044.4-276.7,3955.2,126.1,3953,555c0,313.5,45.7,476.8,200.3,707.6c158.9,237.3,385.4,409.3,618.3,470.3C4880.5,1761.2,5076.5,1739.4,5200.6,1680.7z M6173.8,228.4l34.8-52.3l-69.7,41.4c-39.2,21.8-63.2,50.1-58.8,58.8C6099.8,306.8,6134.6,287.2,6173.8,228.4z"/><path d="M3896.4,3013.2c-108.9-54.4-261.3-211.2-280.9-293.9c-8.7-32.7-4.4-74,6.5-93.6c13.1-19.6,17.4-87.1,10.9-150.2c-4.4-61,2.2-159,15.2-213.4c17.4-71.8,19.6-108.9,4.4-124.1c-65.3-65.3,26.1-200.3,176.4-272.2c278.7-130.6,635.8-102.3,596.6,45.7c-6.5,26.1,13.1,71.8,52.3,121.9c95.8,117.6,135,250.4,126.3,431.1c-2.2,87.1,2.2,163.3,10.9,172c43.5,43.5,8.7,119.7-98,217.7C4297,3050.2,4083.6,3106.8,3896.4,3013.2z M4249.1,2821.6c61-34.8,143.7-100.1,185.1-143.7c74-76.2,76.2-84.9,76.2-246c0-145.9-8.7-182.9-61-272.2c-89.3-150.2-169.8-193.8-326.6-182.9c-176.4,15.2-274.3,71.8-341.8,202.5c-102.3,198.1-61,446.3,102.3,600.9C4007.4,2897.8,4096.7,2908.7,4249.1,2821.6z"/><path d="M4007.4,2690.9c-69.7-41.4-139.3-178.5-139.3-270c2.2-87.1,80.6-228.6,150.2-263.5c145.9-76.2,307-21.8,374.5,124.1c52.3,117.6,52.3,176.3-2.2,287.4C4316.6,2723.6,4148.9,2778,4007.4,2690.9z M4138,2619.1c61-98-95.8-246-176.4-165.5c-30.5,30.5-30.5,45.7-6.5,104.5C4000.9,2667,4088,2695.3,4138,2619.1z"/><path d="M5420.5,2852.1c-23.9-17.4-41.4-61-43.5-113.2c-2.2-45.7-10.9-156.8-17.4-246c-19.6-196,6.5-307,102.3-437.7c39.2-54.4,69.6-124.1,69.6-161.1c2.2-58.8,13.1-69.7,100.2-95.8c182.9-58.8,540,43.5,651,185.1c43.5,54.4,43.5,63.2,13.1,98c-30.5,32.7-32.7,47.9-4.4,141.5c21.8,74,43.6,108.9,71.8,115.4c50.1,8.7,117.6,65.3,117.6,98c-2.2,63.2-47.9,87.1-191.6,102.3c-167.7,17.4-394.1,104.5-614,233C5485.8,2880.4,5468.4,2886.9,5420.5,2852.1z M5612.1,2553.8c-52.2-154.6-2.2-339.6,111.1-409.3c143.7-87.1,317.9-26.1,383.2,130.6c39.2,93.6,113.2,121.9,113.2,43.5c0-259.1-396.3-450.7-605.3-291.8c-145.9,113.2-219.9,385.4-154.6,572.6l24,69.7l69.7-45.7C5590.3,2599.5,5616.4,2566.8,5612.1,2553.8z M5827.6,2466.7c0-37-87.1-63.2-130.6-39.2c-41.4,21.8-58.8,87.1-30.5,115.4C5681.8,2558.1,5827.6,2490.6,5827.6,2466.7z"/><path d="M4334,1251.7c-111-43.6-69.7-139.4,67.5-161.1c45.7-6.5,113.2-32.7,148.1-58.8c34.8-23.9,65.3-41.4,69.7-37c19.6,19.6-58.8,187.2-108.9,230.8C4449.4,1275.7,4410.2,1282.2,4334,1251.7z"/><path d="M5237.6,1230c-87.1-45.7-193.8-161.1-193.8-206.8c0-56.6,37-52.3,121.9,10.9c121.9,89.3,176.4,95.8,298.3,43.5c115.4-50.1,145.9-43.5,145.9,32.7C5609.9,1232.1,5376.9,1308.3,5237.6,1230z"/><path d="M5274.6,304.6c-47.9-32.7-167.7-132.8-267.8-224.3c-161.1-148.1-182.9-176.4-176.4-233c10.9-113.2,84.9-98,248.2,47.9C5427,208.8,5464,226.2,5601.2,139.1c91.5-56.6,167.7-26.1,156.8,61c-10.9,89.3-106.7,143.7-263.4,154.6C5376.9,361.2,5348.6,356.9,5274.6,304.6z"/><path d="M7023-1047.5c-472.5-330.9-651-489.9-901.4-801.2l-87.1-106.7l6.5-492.1c4.4-270,10.9-494.2,15.2-498.6c13.1-15.2,476.8,87.1,696.7,152.4c324.4,95.8,598.8,202.5,905.7,348.4l276.5,130.6l13.1,135c17.4,161.1-15.2,402.8-74,561.7c-37,102.3-372.3,550.9-531.3,709.8l-47.9,50.1L7023-1047.5z"/><path d="M2757.6-1376.3c-213.4-291.8-226.4-330.9-235.1-644.5c-6.5-211.2-2.2-287.4,19.6-313.5c87.1-104.5,936.2-448.5,1332.5-535.6l145.9-32.7v398.4v396.3l-106.7,139.3c-121.9,156.8-222.1,246-459.4,405c-206.8,137.2-540,333.1-566.1,333.1C2875.2-1230.4,2818.6-1295.7,2757.6-1376.3z"/><path d="M5163.6-1829.1c-106.7-34.8-291.8-41.4-372.3-10.9c-32.7,13.1-63.1,17.4-69.7,13.1c-4.4-6.5-17.4-93.6-28.3-193.8c-21.8-219.9-91.4-424.6-252.6-740.3c-137.2-267.8-139.3-307-26.1-472.5c34.8-54.4,93.6-152.4,126.3-217.7c80.6-154.6,304.8-775.1,383.2-1056c91.5-328.8,108.9-348.4,163.3-174.2c43.6,137.2,400.6,964.5,509.5,1182.3c98,193.8,124.1,320.1,78.4,365.8c-26.1,26.1-285.2,740.3-330.9,912.3c-19.6,71.8-41.4,196-50.1,278.7c-8.7,80.6-21.8,145.9-28.3,143.7C5257.2-1800.8,5211.5-1813.9,5163.6-1829.1z"/></g></g>
</svg>
